<svg width="79" height="242" viewBox="0 0 79 242" fill="none" xmlns="http://www.w3.org/2000/svg">
<path d="M15.9238 241.346C31.8085 234.163 45.6018 222.79 56.1973 209.003C67.0004 194.956 74.6478 178.189 77.4942 160.649C78.9694 151.538 79.076 141.941 76.0323 133.138C72.9665 124.27 66.8847 116.723 60.0848 110.385C53.1625 103.915 45.0796 98.317 36.1879 94.9286C28.086 91.8307 18.8332 90.6729 10.57 93.8431C-2.22262 98.7582 -11.0699 116.544 -1.15682 128.115C1.59344 131.318 5.29822 133.533 9.17557 135.105C13.3742 136.802 17.9576 137.872 22.4982 137.925C31.2235 138.034 38.7766 133.688 44.2838 127.116C55.8066 113.4 58.867 93.5896 56.2621 76.3047C53.5539 58.3017 44.313 41.9407 31.3832 29.2655C19.022 17.1175 3.50113 8.2252 -13.2829 3.82655C-29.4967 -0.419305 -46.9831 -0.43045 -62.8952 5.0885C-66.7431 6.42422 -70.5043 8.09871 -74.0806 10.0397C-74.6122 10.3312 -74.1458 11.1662 -73.6093 10.8563C-59.1592 2.99305 -42.4374 0.412826 -26.1704 2.32592C-9.76972 4.25511 5.96899 10.6418 19.3099 20.3109C33.363 30.4864 45.0153 44.397 51.1891 60.7251C57.5097 77.3884 58.0498 96.5658 51.3239 113.205C48.2188 120.893 43.3755 128.372 36.3263 132.972C28.5624 138.031 19.235 137.741 10.7624 134.701C3.15319 131.972 -3.97266 126.335 -4.49664 117.694C-4.9233 110.677 -1.32717 103.732 3.80939 99.1319C17.4418 86.888 37.7057 94.7831 50.6167 103.923C58.3231 109.38 65.5026 116.215 70.5926 124.225C75.5699 132.067 77.6786 140.975 77.4902 150.214C77.322 159.084 75.3662 167.928 72.5498 176.305C69.8257 184.411 66.1463 192.182 61.6211 199.431C52.7033 213.727 40.5381 226.088 26.1236 234.848C22.66 236.958 19.08 238.839 15.3789 240.509C14.894 240.774 15.3653 241.591 15.9238 241.346Z" fill="#EAD1D0"/>
</svg>
