<svg width="64" height="383" viewBox="0 0 64 383" fill="none" xmlns="http://www.w3.org/2000/svg">
<path d="M162.73 -12.4605C135.016 -11.4256 107.87 -2.96435 83.9878 10.9748C59.6437 25.172 38.3188 45.2699 23.6042 69.3916C15.9658 81.9236 10.053 95.9922 9.25797 110.786C8.45633 125.689 12.8918 140.457 19.1098 153.877C25.4295 167.565 33.9825 180.665 45.0524 190.997C55.1328 200.427 68.0726 207.692 82.1502 207.987C103.948 208.435 127.653 187.556 119.986 164.559C117.854 158.191 113.724 152.702 108.953 148.058C103.784 143.036 97.6719 138.706 91.0131 135.9C78.2216 130.497 64.4848 132.36 52.4285 138.729C27.2224 152.007 10.8311 179.343 4.3022 206.364C-2.50501 234.505 1.29865 264.152 12.7488 290.588C23.6773 315.905 41.2142 338.326 63.3078 354.888C84.6526 370.883 110.413 381.405 137.17 382.838C143.641 383.182 150.188 382.976 156.622 382.266C157.58 382.156 157.393 380.647 156.417 380.781C130.408 383.679 104.22 377.432 81.3979 364.841C58.388 352.147 39.0272 333.285 25.1683 311.029C10.5637 287.6 1.73702 260.113 2.43308 232.357C3.11389 204.019 13.8203 175.451 33.7106 154.988C42.8974 145.531 54.5199 137.426 67.6662 134.887C82.141 132.1 95.7111 138.132 106.373 147.699C115.948 156.29 123.067 168.873 118.657 181.913C115.077 192.504 105.612 200.572 95.2842 204.26C67.8527 214.102 42.7286 190.299 29.1857 169.082C21.1033 156.415 14.6234 142.036 11.9277 127.18C9.29721 112.64 11.5327 98.2546 17.3516 84.7612C22.9194 71.7997 31.106 59.9494 40.2805 49.3044C49.1563 39.0032 59.239 29.7692 70.2546 21.8128C91.9697 6.11645 117.309 -4.77871 143.804 -9.01988C150.173 -10.0452 156.576 -10.6644 163.032 -10.9014C163.905 -10.9996 163.7 -12.4854 162.73 -12.4605Z" fill="#EAD1D0"/>
</svg>
